<?xml version="1.0" encoding="iso-8859-1"?>
<!-- Generator: Adobe Illustrator 19.0.0, SVG Export Plug-In . SVG Version: 6.00 Build 0)  -->
<svg version="1.1" id="Layer_1" xmlns="http://www.w3.org/2000/svg" xmlns:xlink="http://www.w3.org/1999/xlink" x="0px" y="0px"
	 viewBox="0 0 511.998 511.998" style="enable-background:new 0 0 511.998 511.998;" xml:space="preserve">
<g>
	<g>
		<path d="M443.49,457.864h-50.032c17.442-10.243,33.701-22.769,48.382-37.449c45.244-45.244,70.158-105.399,70.158-169.387
			c0-9.031-7.322-16.355-16.355-16.355h-179.99l-46.346-80.606L331.482,45.93c4.501-7.831,1.804-17.827-6.027-22.329
			c-7.829-4.504-17.828-1.804-22.331,6.027l-52.683,91.629l-52.683-91.629c-4.502-7.831-14.498-10.529-22.331-6.027
			c-7.831,4.502-10.529,14.498-6.027,22.329l62.174,108.137l-46.346,80.606H16.355C7.322,234.673,0,241.997,0,251.028
			c0,88.096,47.81,165.225,118.836,206.838h-50.31c-9.033,0-16.355,7.324-16.355,16.355s7.322,16.355,16.355,16.355h170.895
			c0.043,0,0.083,0.002,0.126,0.002h32.906c0.044,0,0.087-0.002,0.131-0.002H443.49c9.033,0,16.355-7.324,16.355-16.355
			S452.523,457.864,443.49,457.864z M250.443,186.879l27.479,47.795h-54.958L250.443,186.879z M272.456,457.866
			c-0.011,0-0.021,0.002-0.031,0.002h-32.842c-0.011,0-0.021-0.002-0.031-0.002h-0.133c-89.29-0.057-165.513-56.99-194.362-136.447
			h105.378c9.033,0,16.355-7.324,16.355-16.355s-7.322-16.355-16.355-16.355H36.163c-1.294-6.995-2.245-14.106-2.813-21.327h161.28
			c0.016,0,0.033,0.003,0.051,0.003c0.016,0,0.033-0.003,0.049-0.003H306.16c0.016,0,0.033,0.003,0.049,0.003
			s0.033-0.003,0.051-0.003h172.4c-3.814,49.087-24.761,94.717-59.946,129.904c-39.035,39.035-90.926,60.545-146.126,60.579H272.456
			z"/>
	</g>
</g>
<g>
	<g>
		<path d="M205.611,288.709h-6.656c-9.033,0-16.355,7.324-16.355,16.355s7.322,16.355,16.355,16.355h6.656
			c9.033,0,16.355-7.324,16.355-16.355S214.644,288.709,205.611,288.709z"/>
	</g>
</g>
<g>
</g>
<g>
</g>
<g>
</g>
<g>
</g>
<g>
</g>
<g>
</g>
<g>
</g>
<g>
</g>
<g>
</g>
<g>
</g>
<g>
</g>
<g>
</g>
<g>
</g>
<g>
</g>
<g>
</g>
</svg>
