<?xml version='1.0' encoding='iso-8859-1'?>
<svg version="1.1" xmlns="http://www.w3.org/2000/svg" viewBox="0 0 463.002 463.002" xmlns:xlink="http://www.w3.org/1999/xlink" enable-background="new 0 0 463.002 463.002">
  <g>
    <path d="m231.501,272.001c-4.142,0-7.5,3.357-7.5,7.5v144.001c0,4.143 3.358,7.5 7.5,7.5s7.5-3.357 7.5-7.5v-144.001c0-4.143-3.358-7.5-7.5-7.5z"/>
    <path d="m383.001,135.502c0-12.958-10.542-23.5-23.5-23.5h-120.5v-35.399c0-9.813 5.829-18.653 14.849-22.519l92.605-39.688c3.807-1.632 5.571-6.041 3.939-9.848-1.632-3.808-6.041-5.571-9.848-3.939l-92.605,39.688c-14.543,6.232-23.94,20.483-23.94,36.306v35.399h-120.5c-12.958,0-23.5,10.542-23.5,23.5 0,10.572 7.018,19.533 16.64,22.476l29.139,276.822c1.692,16.078 15.16,28.202 31.327,28.202h148.787c16.167,0 29.635-12.124 31.327-28.202l29.139-276.822c9.623-2.943 16.641-11.904 16.641-22.476zm-159,103.886c-3.206-0.61-5.568-1.618-8.272-2.778-5.036-2.16-10.743-4.607-21.61-4.607-10.866,0-16.573,2.447-21.608,4.607-4.419,1.896-7.91,3.393-15.695,3.393-7.788,0-11.28-1.497-15.701-3.393-5.034-2.159-10.739-4.605-21.597-4.607l-7.684-73h112.169v80.385zm98.301,193.842c-0.886,8.422-7.941,14.772-16.409,14.772h-148.788c-8.468,0-15.523-6.351-16.409-14.772l-19.6-186.203c6.689,0.193 9.999,1.608 14.105,3.369 5.036,2.159 10.744,4.606 21.612,4.606 10.867,0 16.573-2.447 21.608-4.607 4.419-1.896 7.91-3.393 15.695-3.393 7.787,0 11.278,1.497 15.698,3.393 5.036,2.16 10.743,4.607 21.61,4.607 0.025,0 0.048-0.001 0.073-0.001h0.001c0.001,0 0.001,0 0.002,0 10.824-0.012 16.521-2.451 21.548-4.605 4.425-1.896 7.92-3.394 15.716-3.394 7.804,0 11.302,1.498 15.731,3.395 5.042,2.159 10.755,4.605 21.635,4.605s16.594-2.446 21.636-4.605c4.114-1.761 7.43-3.177 14.134-3.37l-19.598,186.203zm37.197-289.228h-23.998c-4.142,0-7.5,3.357-7.5,7.5s3.358,7.5 7.5,7.5h15.666l-7.684,73c-10.87,0.002-16.581,2.447-21.62,4.605-4.429,1.896-7.928,3.395-15.731,3.395-7.803,0-11.302-1.498-15.731-3.395-5.042-2.159-10.756-4.605-21.636-4.605-10.875,0-16.585,2.447-21.624,4.606-2.668,1.143-5.004,2.138-8.142,2.751v-80.357h16.502c4.142,0 7.5-3.357 7.5-7.5s-3.358-7.5-7.5-7.5h-152.002c-4.687,0-8.5-3.813-8.5-8.5s3.813-8.5 8.5-8.5h256c4.687,0 8.5,3.813 8.5,8.5s-3.813,8.5-8.5,8.5z"/>
    <path d="m303.503,144.002h-16.003c-4.142,0-7.5,3.357-7.5,7.5s3.358,7.5 7.5,7.5h16.003c4.142,0 7.5-3.357 7.5-7.5s-3.357-7.5-7.5-7.5z"/>
  </g>
</svg>
