<?xml version="1.0" encoding="iso-8859-1"?>
<!-- Generator: Adobe Illustrator 16.0.0, SVG Export Plug-In . SVG Version: 6.00 Build 0)  -->
<!DOCTYPE svg PUBLIC "-//W3C//DTD SVG 1.1//EN" "http://www.w3.org/Graphics/SVG/1.1/DTD/svg11.dtd">
<svg version="1.1" id="Capa_1" xmlns="http://www.w3.org/2000/svg" xmlns:xlink="http://www.w3.org/1999/xlink" x="0px" y="0px"
	 width="401.344px" height="401.344px" viewBox="0 0 401.344 401.344" style="enable-background:new 0 0 401.344 401.344;"
	 xml:space="preserve">
<g>
	<g>
		<path d="M289.396,178.824c-4.226-3.559-10.531-3.021-14.092,1.207c-3.558,4.225-3.019,10.531,1.207,14.092
			c26.471,22.297,27.293,61.688,2.043,98.018c-3.152,4.535-2.031,10.767,2.504,13.918c1.737,1.209,3.729,1.789,5.696,1.789
			c3.164,0,6.279-1.498,8.224-4.293c15.188-21.852,22.731-45.293,21.821-67.789C315.887,213.162,306.154,192.941,289.396,178.824z"
			/>
		<path d="M340.691,134.561c-15.562-15.561-33.305-23.125-54.246-23.125c-19.338,0-37.928,6.566-54.328,12.359
			c-11.836,4.18-23.021,8.131-31.445,8.393c-8.424-0.262-19.611-4.213-31.447-8.393c-16.402-5.793-34.994-12.359-54.33-12.359
			c-20.941,0-38.686,7.564-54.248,23.125c-49.23,49.232-32.174,104.007-21.982,136.732l0.525,1.697
			c9.359,30.109,44.494,128.354,103.711,128.354c31.559,0,42.195-5.479,49.961-9.483c3.311-1.707,4.875-2.515,7.836-2.642
			c3.459,0.14,5.391,1.08,9.141,2.908c7.979,3.891,18.908,9.217,48.603,9.217c59.217,0,94.352-98.244,103.709-128.354l0.526-1.689
			C372.869,238.574,389.93,183.797,340.691,134.561z M343.58,265.354l-0.528,1.699c-4.039,12.994-15.361,46.236-33.226,74.179
			c-11.697,18.301-30.109,40.112-51.387,40.112c-25.078,0-33.263-3.987-39.841-7.194c-4.756-2.316-9.674-4.716-17.638-4.933
			l-0.279-0.008l-0.277,0.008c-7.691,0.219-12.48,2.688-16.707,4.865c-6.277,3.236-14.09,7.262-40.797,7.262
			c-21.275,0-39.688-21.812-51.385-40.113c-17.867-27.942-29.188-61.184-33.225-74.178l-0.531-1.705
			c-9.42-30.248-23.654-75.958,17.031-116.643c11.781-11.783,24.523-17.27,40.104-17.27c15.908,0,32.055,5.703,47.668,11.219
			c13.494,4.764,26.238,9.264,37.875,9.535l0.234,0.006l0.232-0.006c11.639-0.271,24.383-4.771,37.873-9.535
			c15.613-5.516,31.76-11.219,47.668-11.219c15.58,0,28.322,5.486,40.104,17.27C367.238,189.391,353.002,235.104,343.58,265.354z"/>
		<path d="M217.912,115.977h0.002c16.185,0,42.144-7.066,62.051-26.975c26.06-26.061,33.798-69.291,20.552-82.537
			C296.228,2.176,289.317,0,279.976,0c-16.14,0-42.062,7.076-62.001,27.014c-12.264,12.268-21.222,28.277-25.222,45.084
			c-3.945,16.58-2.199,30.582,4.674,37.455C201.688,113.814,208.58,115.975,217.912,115.977z M212.619,75.094
			c1.938-7.332,7.053-21.49,19.5-33.938C246.73,26.543,266.684,20,279.975,20c3.209,0,5.474,0.002,6.219,0.73
			c5.249,5.137-0.723,34.48-20.371,54.131c-14.586,14.586-34.572,21.115-47.91,21.115c-3.385,0-5.653-0.107-6.365-0.773
			C209.762,93.533,209.773,85.85,212.619,75.094z"/>
	</g>
</g>
<g>
</g>
<g>
</g>
<g>
</g>
<g>
</g>
<g>
</g>
<g>
</g>
<g>
</g>
<g>
</g>
<g>
</g>
<g>
</g>
<g>
</g>
<g>
</g>
<g>
</g>
<g>
</g>
<g>
</g>
</svg>
