<?xml version="1.0" encoding="iso-8859-1"?>
<!-- Generator: Adobe Illustrator 19.0.0, SVG Export Plug-In . SVG Version: 6.00 Build 0)  -->
<svg version="1.1" id="Layer_1" xmlns="http://www.w3.org/2000/svg" xmlns:xlink="http://www.w3.org/1999/xlink" x="0px" y="0px"
	 viewBox="0 0 512 512" style="enable-background:new 0 0 512 512;" xml:space="preserve">
<g>
	<g>
		<path d="M295.894,0c-32.525,0-63.331,13.847-85.097,37.942c-10.17-2.528-20.923-3.364-31.916-2.002
			c-23.405,2.87-44.289,14.681-58.806,33.267c-14.517,18.577-20.931,41.698-18.056,65.103c3.478,28.332,20.204,52.685,44.628,66.289
			l51.906,151.392c0.017,0.043,0.027,0.086,0.044,0.129l52.77,153.914c1.224,3.569,4.578,5.966,8.349,5.966s7.125-2.396,8.349-5.965
			l105.157-306.707c23.797-21.733,37.429-52.052,37.429-84.569C410.653,51.483,359.174,0,295.894,0z M119.545,132.155
			c-2.302-18.724,2.827-37.216,14.444-52.086c11.612-14.862,28.319-24.311,47.039-26.612c36.265-4.42,69.626,19.599,77.491,54.549
			c-36.84,8.056-65.161,39.142-68.975,77.373H155.55C135.836,174.532,122.34,154.942,119.545,132.155z M302.442,240.586
			l-44.897,44.897l-42.724-42.724l39.724-39.724h10.345L302.442,240.586z M289.855,203.034h50.138l-25.069,25.069L289.855,203.034z
			 M202.338,230.276l-27.241-27.241h54.483L202.338,230.276z M174.499,227.403l15.356,15.356l-7.515,7.515L174.499,227.403z
			 M188.714,268.864l13.624-13.623l42.724,42.724l-34.531,34.53L188.714,268.864z M257.545,310.448l36.099,36.099l-36.069,36.069
			l-36.099-36.099L257.545,310.448z M225.161,375.168l19.931,19.931l-9.754,9.754L225.161,375.168z M259.717,475.957l-18.004-52.513
			l15.862-15.862l18.099,18.099c0.308,0.308,0.705,0.44,1.043,0.694L259.717,475.957z M283.002,408.043l-12.944-12.944
			l26.451-26.451L283.002,408.043z M307.855,335.554c-0.068,0.004-0.132,0.032-0.2,0.039l-37.627-37.627l44.896-44.896
			l15.796,15.795L307.855,335.554z M337.094,250.274l-9.687-9.688l19.796-19.795L337.094,250.274z M207.365,185.379
			c4.366-34.78,34.064-61.793,70.008-61.793c35.944,0,65.641,27.013,70.007,61.793H207.365z M364.869,183.084
			c-5.497-43.429-42.596-77.153-87.497-77.153c-0.44,0-0.865,0.06-1.303,0.067c-5.545-27.375-23.502-49.621-47.184-61.444
			c17.994-17.173,41.908-26.899,67.009-26.899c53.543,0,97.103,43.56,97.103,97.103
			C392.998,140.655,382.854,164.974,364.869,183.084z"/>
	</g>
</g>
<g>
</g>
<g>
</g>
<g>
</g>
<g>
</g>
<g>
</g>
<g>
</g>
<g>
</g>
<g>
</g>
<g>
</g>
<g>
</g>
<g>
</g>
<g>
</g>
<g>
</g>
<g>
</g>
<g>
</g>
</svg>
