<?xml version="1.0" encoding="iso-8859-1"?>
<!-- Generator: Adobe Illustrator 19.0.0, SVG Export Plug-In . SVG Version: 6.00 Build 0)  -->
<svg version="1.1" id="Layer_1" xmlns="http://www.w3.org/2000/svg" xmlns:xlink="http://www.w3.org/1999/xlink" x="0px" y="0px"
	 viewBox="0 0 512 512" style="enable-background:new 0 0 512 512;" xml:space="preserve">
<g>
	<g>
		<path d="M493.613,232.49c-1.88-5.29-4.685-10.213-8.289-14.518c4.591-9.872,5.709-21.206,2.814-32.01
			c-2.894-10.801-9.532-20.06-18.443-26.315c1.88-10.725,0.026-21.965-5.565-31.648c-5.593-9.688-14.398-16.913-24.623-20.646
			c-0.96-10.843-5.659-21.218-13.568-29.125c-7.91-7.912-18.284-12.611-29.128-13.57c-3.733-10.225-10.957-19.031-20.646-24.623
			c-9.685-5.592-20.92-7.444-31.648-5.566c-6.255-8.911-15.514-15.549-26.314-18.442c-10.804-2.894-22.139-1.776-32.01,2.814
			C277.845,11.851,267.185,7.837,256,7.837c-11.185,0-21.844,4.015-30.191,11.003c-9.872-4.589-21.207-5.708-32.01-2.814
			c-10.801,2.894-20.059,9.532-26.315,18.443c-10.724-1.883-21.965-0.025-31.648,5.565c-9.688,5.593-16.913,14.398-20.646,24.623
			c-10.842,0.96-21.218,5.659-29.125,13.568c-7.912,7.91-12.611,18.285-13.57,29.129c-10.224,3.733-19.031,10.957-24.623,20.645
			c-5.591,9.684-7.445,20.923-5.565,31.648c-8.912,6.254-15.55,15.514-18.443,26.314c-2.895,10.804-1.776,22.139,2.814,32.011
			c-3.604,4.304-6.41,9.227-8.289,14.518H0v15.673c0,68.379,26.628,132.668,74.981,181.019
			c22.465,22.465,48.372,40.232,76.529,52.827v22.154h208.98v-22.154c28.157-12.594,54.065-30.362,76.529-52.827
			C485.372,380.831,512,316.542,512,248.163V232.49H493.613z M54.141,194.075c1.45-5.414,5.735-9.665,11.184-11.098l7.534-1.981
			l6.129-14.865l-3.91-6.702c-2.839-4.865-2.862-10.904-0.061-15.756c2.792-4.836,7.996-7.827,13.602-7.827
			c0.034,0,0.069,0,0.103,0.001l7.77,0.051l9.797-12.704l-2.073-7.538c-1.497-5.443,0.041-11.291,4.014-15.263
			c3.971-3.973,9.82-5.509,15.262-4.013l7.538,2.073l12.704-9.797l-0.051-7.77c-0.038-5.645,2.961-10.896,7.826-13.705
			c4.854-2.802,10.891-2.778,15.756,0.061l6.721,3.921l14.846-6.141l1.981-7.534c1.433-5.448,5.684-9.733,11.099-11.184
			c5.42-1.453,11.253,0.138,15.217,4.148l5.44,5.503l15.931-2.024l3.879-6.806c2.79-4.9,8.01-7.943,13.621-7.943
			c5.611,0,10.831,3.044,13.622,7.943l3.831,6.801l15.979,2.028l5.44-5.503c3.964-4.01,9.8-5.602,15.217-4.148
			c5.414,1.45,9.665,5.735,11.098,11.184l1.981,7.534l14.865,6.13l6.703-3.912c4.864-2.839,10.901-2.862,15.755-0.06
			c4.865,2.809,7.864,8.06,7.826,13.705l-0.051,7.77l12.704,9.797l7.538-2.073c5.443-1.496,11.291,0.04,15.263,4.015
			c3.973,3.972,5.51,9.819,4.013,15.262l-2.073,7.538l9.797,12.704l7.77-0.051c0.033-0.001,0.068-0.001,0.103-0.001
			c5.605,0,10.811,2.993,13.603,7.827c2.802,4.854,2.778,10.891-0.061,15.756l-3.91,6.702l6.129,14.865l7.534,1.981
			c5.448,1.433,9.733,5.684,11.184,11.099c1.453,5.421-0.137,11.251-4.148,15.217l-5.503,5.44l2.024,15.93l3.207,1.828H58.604
			l3.16-1.779l2.028-15.979l-5.502-5.44C54.278,205.327,52.689,199.496,54.141,194.075z M256,472.816
			c-118.604,0-216.037-92.391-224.112-208.98h448.225C472.037,380.425,374.604,472.816,256,472.816z"/>
	</g>
</g>
<g>
	<g>
		<circle cx="376.163" cy="185.469" r="15.673"/>
	</g>
</g>
<g>
	<g>
		<circle cx="334.367" cy="122.775" r="15.673"/>
	</g>
</g>
<g>
	<g>
		<circle cx="156.735" cy="154.122" r="15.673"/>
	</g>
</g>
<g>
</g>
<g>
</g>
<g>
</g>
<g>
</g>
<g>
</g>
<g>
</g>
<g>
</g>
<g>
</g>
<g>
</g>
<g>
</g>
<g>
</g>
<g>
</g>
<g>
</g>
<g>
</g>
<g>
</g>
</svg>
